# xmcd
#
# Track frame offsets: 
#        150
#        8526
#        16713
#        21733
#        25818
#        31170
#        40941
#        47389
#        66167
#        72898
#        87777
#        95664
#        105734
#
# Disc length: 1679 seconds
#
# Revision: 0
# Processed by: cddbd v1.5.2PL0 Copyright (c) Steve Scherf et al.
# Submitted via: ExactAudioCopy v1.0b1
#
DISCID=96068d0d
DTITLE=Various Artist - The Beautiful Music All Around Us: Field Recordings a
DTITLE=nd the American Experience: A Recording To Accompany the Book
DYEAR=2012
DGENRE=Folk
TTITLE0=W.H. Stepp - Bonaparte's Retreat
TTITLE1=Kelly Pave and Group - Rock Island Line
TTITLE2=Ora Dell Graham - Pullin' the Skiff
TTITLE3=Ora Dell Graham - Shortenin' Bread
TTITLE4=Christine and Katherine Shipp - Sea Lion Woman
TTITLE5=The Nashville Washboard Band - Soldier's Joy
TTITLE6=Vera Hall - Another Man Done Gone
TTITLE7=Bozie Sturdivant - Ain't No Grave Can Hold My Body Down
TTITLE8=Pete Steele - Coal Creek March
TTITLE9=Texas Gladden - One Morning in May
TTITLE10=Luther Strong - Glory in the Meetinghouse
TTITLE11=Charlie Butler - Diamond Joe
TTITLE12=Jess Morris - Goodbye, Old Paint
EXTD=
EXTT0=
EXTT1=
EXTT2=
EXTT3=
EXTT4=
EXTT5=
EXTT6=
EXTT7=
EXTT8=
EXTT9=
EXTT10=
EXTT11=
EXTT12=
PLAYORDER=
